<svg width="48" height="48" viewBox="0 0 48 48" fill="green" xmlns="http://www.w3.org/2000/svg">
<path fill-rule="evenodd" clip-rule="evenodd" d="M27 15H19.5H17C15.8954 15 15 15.8954 15 17V31C15 32.1046 15.8954 33 17 33H31C32.1046 33 33 32.1046 33 31V20.7016C33 20.2474 32.8454 19.8068 32.5617 19.4522L29.6005 15.7506C29.2209 15.2762 28.6463 15 28.0388 15H27ZM28.0387 17L28 17V19C28 20.1046 27.1046 21 26 21H20.5C19.3954 21 18.5 20.1046 18.5 19V17L17 17L17 31H31L31 20.7016L28.0387 17ZM26 19V17H20.5V19H26ZM25 26.5C25 27.3284 24.3284 28 23.5 28C22.6716 28 22 27.3284 22 26.5C22 25.6716 22.6716 25 23.5 25C24.3284 25 25 25.6716 25 26.5ZM27 26.5C27 28.433 25.433 30 23.5 30C21.567 30 20 28.433 20 26.5C20 24.567 21.567 23 23.5 23C25.433 23 27 24.567 27 26.5Z" fill="green"/>
</svg>
